<mxfile host="app.diagrams.net" modified="2021-11-09T23:38:28.929Z" agent="5.0 (Windows NT 10.0; Win64; x64) AppleWebKit/537.36 (KHTML, like Gecko) Chrome/95.0.4638.69 Safari/537.36" etag="Q1DX_ZZT5lN44FUZvQsk" version="15.7.1" type="github">
  <diagram id="N6o0jQUFlPtu_WKrlJ50" name="Page-1">
    <mxGraphModel dx="1248" dy="1833" grid="1" gridSize="10" guides="1" tooltips="1" connect="1" arrows="1" fold="1" page="1" pageScale="1" pageWidth="827" pageHeight="1169" math="0" shadow="0">
      <root>
        <mxCell id="0" />
        <mxCell id="1" parent="0" />
        <mxCell id="dlTAh_w1uyHh_SsjcPfW-1" value="&lt;font style=&quot;font-size: 25px&quot;&gt;Sistema bancário&lt;/font&gt;" style="html=1;verticalAlign=top;" parent="1" vertex="1">
          <mxGeometry x="100" y="-20" width="660" height="820" as="geometry" />
        </mxCell>
        <mxCell id="dlTAh_w1uyHh_SsjcPfW-11" style="rounded=0;orthogonalLoop=1;jettySize=auto;html=1;exitX=1;exitY=0.3333333333333333;exitDx=0;exitDy=0;exitPerimeter=0;fontSize=25;" parent="1" source="dlTAh_w1uyHh_SsjcPfW-2" target="dlTAh_w1uyHh_SsjcPfW-5" edge="1">
          <mxGeometry relative="1" as="geometry" />
        </mxCell>
        <mxCell id="dlTAh_w1uyHh_SsjcPfW-13" style="rounded=0;orthogonalLoop=1;jettySize=auto;html=1;exitX=1;exitY=0.3333333333333333;exitDx=0;exitDy=0;exitPerimeter=0;entryX=0;entryY=0.5;entryDx=0;entryDy=0;fontSize=25;" parent="1" source="dlTAh_w1uyHh_SsjcPfW-2" target="dlTAh_w1uyHh_SsjcPfW-6" edge="1">
          <mxGeometry relative="1" as="geometry" />
        </mxCell>
        <mxCell id="dlTAh_w1uyHh_SsjcPfW-14" style="edgeStyle=none;rounded=0;orthogonalLoop=1;jettySize=auto;html=1;exitX=1;exitY=0.3333333333333333;exitDx=0;exitDy=0;exitPerimeter=0;fontSize=25;entryX=0.093;entryY=0.233;entryDx=0;entryDy=0;entryPerimeter=0;" parent="1" source="dlTAh_w1uyHh_SsjcPfW-2" target="dlTAh_w1uyHh_SsjcPfW-7" edge="1">
          <mxGeometry relative="1" as="geometry" />
        </mxCell>
        <mxCell id="dlTAh_w1uyHh_SsjcPfW-15" style="rounded=0;orthogonalLoop=1;jettySize=auto;html=1;exitX=1;exitY=0.3333333333333333;exitDx=0;exitDy=0;exitPerimeter=0;entryX=0;entryY=0.5;entryDx=0;entryDy=0;fontSize=25;" parent="1" source="dlTAh_w1uyHh_SsjcPfW-2" target="dlTAh_w1uyHh_SsjcPfW-8" edge="1">
          <mxGeometry relative="1" as="geometry" />
        </mxCell>
        <mxCell id="dlTAh_w1uyHh_SsjcPfW-2" value="Cliente" style="shape=umlActor;verticalLabelPosition=bottom;verticalAlign=top;html=1;" parent="1" vertex="1">
          <mxGeometry x="20" y="180" width="30" height="60" as="geometry" />
        </mxCell>
        <mxCell id="dlTAh_w1uyHh_SsjcPfW-18" style="edgeStyle=none;rounded=0;orthogonalLoop=1;jettySize=auto;html=1;exitX=0;exitY=0.3333333333333333;exitDx=0;exitDy=0;exitPerimeter=0;entryX=1;entryY=0.5;entryDx=0;entryDy=0;fontSize=25;" parent="1" source="dlTAh_w1uyHh_SsjcPfW-3" target="dlTAh_w1uyHh_SsjcPfW-6" edge="1">
          <mxGeometry relative="1" as="geometry" />
        </mxCell>
        <mxCell id="dlTAh_w1uyHh_SsjcPfW-20" style="edgeStyle=none;rounded=0;orthogonalLoop=1;jettySize=auto;html=1;exitX=0;exitY=0.3333333333333333;exitDx=0;exitDy=0;exitPerimeter=0;entryX=0.918;entryY=0.192;entryDx=0;entryDy=0;entryPerimeter=0;fontSize=25;" parent="1" source="dlTAh_w1uyHh_SsjcPfW-3" target="dlTAh_w1uyHh_SsjcPfW-7" edge="1">
          <mxGeometry relative="1" as="geometry" />
        </mxCell>
        <mxCell id="dlTAh_w1uyHh_SsjcPfW-21" style="rounded=0;orthogonalLoop=1;jettySize=auto;html=1;exitX=0;exitY=0.3333333333333333;exitDx=0;exitDy=0;exitPerimeter=0;fontSize=25;entryX=1;entryY=0.5;entryDx=0;entryDy=0;" parent="1" source="dlTAh_w1uyHh_SsjcPfW-3" target="dlTAh_w1uyHh_SsjcPfW-8" edge="1">
          <mxGeometry relative="1" as="geometry">
            <Array as="points">
              <mxPoint x="710" y="560" />
            </Array>
          </mxGeometry>
        </mxCell>
        <mxCell id="dlTAh_w1uyHh_SsjcPfW-3" value="Banco" style="shape=umlActor;verticalLabelPosition=bottom;verticalAlign=top;html=1;" parent="1" vertex="1">
          <mxGeometry x="780" y="180" width="30" height="60" as="geometry" />
        </mxCell>
        <mxCell id="dlTAh_w1uyHh_SsjcPfW-5" value="&lt;div&gt;&lt;span&gt;&lt;font style=&quot;font-size: 31px&quot;&gt;efetuar login&lt;/font&gt;&lt;/span&gt;&lt;/div&gt;" style="ellipse;whiteSpace=wrap;html=1;verticalAlign=top;align=center;" parent="1" vertex="1">
          <mxGeometry x="260" y="160" width="170" height="80" as="geometry" />
        </mxCell>
        <mxCell id="dlTAh_w1uyHh_SsjcPfW-6" value="&lt;font style=&quot;font-size: 26px&quot;&gt;Consultar saldo&lt;/font&gt;" style="ellipse;whiteSpace=wrap;html=1;verticalAlign=top;" parent="1" vertex="1">
          <mxGeometry x="340" y="300" width="180" height="70" as="geometry" />
        </mxCell>
        <mxCell id="dlTAh_w1uyHh_SsjcPfW-7" value="&lt;font style=&quot;font-size: 20px&quot;&gt;Realizar transferência&lt;/font&gt;" style="ellipse;whiteSpace=wrap;html=1;verticalAlign=top;" parent="1" vertex="1">
          <mxGeometry x="340" y="380" width="180" height="70" as="geometry" />
        </mxCell>
        <mxCell id="dlTAh_w1uyHh_SsjcPfW-8" value="&lt;font style=&quot;font-size: 22px&quot;&gt;Fazer pagamento&lt;/font&gt;" style="ellipse;whiteSpace=wrap;html=1;verticalAlign=top;" parent="1" vertex="1">
          <mxGeometry x="315" y="560" width="170" height="70" as="geometry" />
        </mxCell>
        <mxCell id="dlTAh_w1uyHh_SsjcPfW-23" value="verificar login&lt;span style=&quot;color: rgba(0 , 0 , 0 , 0) ; font-family: monospace ; font-size: 0px&quot;&gt;%3CmxGraphModel%3E%3Croot%3E%3CmxCell%20id%3D%220%22%2F%3E%3CmxCell%20id%3D%221%22%20parent%3D%220%22%2F%3E%3CmxCell%20id%3D%222%22%20value%3D%22Use%20Case%22%20style%3D%22ellipse%3BwhiteSpace%3Dwrap%3Bhtml%3D1%3BverticalAlign%3Dtop%3B%22%20vertex%3D%221%22%20parent%3D%221%22%3E%3CmxGeometry%20x%3D%22330%22%20y%3D%22370%22%20width%3D%22140%22%20height%3D%2270%22%20as%3D%22geometry%22%2F%3E%3C%2FmxCell%3E%3C%2Froot%3E%3C%2FmxGraphModel%3E&lt;/span&gt;" style="ellipse;whiteSpace=wrap;html=1;fontSize=25;align=center;verticalAlign=top;" parent="1" vertex="1">
          <mxGeometry x="560" y="60" width="140" height="70" as="geometry" />
        </mxCell>
        <mxCell id="dlTAh_w1uyHh_SsjcPfW-24" value="Exibir Erro de login" style="ellipse;whiteSpace=wrap;html=1;fontSize=25;align=center;verticalAlign=top;" parent="1" vertex="1">
          <mxGeometry x="570" y="170" width="150" height="70" as="geometry" />
        </mxCell>
        <mxCell id="dlTAh_w1uyHh_SsjcPfW-26" value="&amp;lt;&amp;lt;include&amp;gt;&amp;gt;" style="endArrow=open;endSize=12;dashed=1;html=1;rounded=0;fontSize=25;" parent="1" source="dlTAh_w1uyHh_SsjcPfW-5" target="dlTAh_w1uyHh_SsjcPfW-23" edge="1">
          <mxGeometry width="160" relative="1" as="geometry">
            <mxPoint x="430" y="200" as="sourcePoint" />
            <mxPoint x="590" y="200" as="targetPoint" />
          </mxGeometry>
        </mxCell>
        <mxCell id="dlTAh_w1uyHh_SsjcPfW-28" value="Extends" style="endArrow=block;endFill=0;html=1;rounded=0;fontSize=25;entryX=0;entryY=0.5;entryDx=0;entryDy=0;" parent="1" target="dlTAh_w1uyHh_SsjcPfW-24" edge="1">
          <mxGeometry x="-0.144" y="1" width="160" relative="1" as="geometry">
            <mxPoint x="430" y="200" as="sourcePoint" />
            <mxPoint x="550" y="200" as="targetPoint" />
            <mxPoint as="offset" />
          </mxGeometry>
        </mxCell>
        <mxCell id="dlTAh_w1uyHh_SsjcPfW-29" value="Verificar Saldo" style="ellipse;whiteSpace=wrap;html=1;fontSize=25;align=center;verticalAlign=top;" parent="1" vertex="1">
          <mxGeometry x="600" y="440" width="140" height="70" as="geometry" />
        </mxCell>
        <mxCell id="dlTAh_w1uyHh_SsjcPfW-31" value="&lt;font style=&quot;font-size: 20px&quot;&gt;&amp;lt;&amp;lt;incluse&amp;gt;&amp;gt;&lt;/font&gt;" style="endArrow=open;endSize=11;dashed=1;html=1;rounded=0;fontSize=25;exitX=1;exitY=1;exitDx=0;exitDy=0;" parent="1" source="dlTAh_w1uyHh_SsjcPfW-7" target="dlTAh_w1uyHh_SsjcPfW-29" edge="1">
          <mxGeometry x="0.0339" y="8" width="160" relative="1" as="geometry">
            <mxPoint x="510" y="450" as="sourcePoint" />
            <mxPoint x="660" y="450" as="targetPoint" />
            <mxPoint as="offset" />
          </mxGeometry>
        </mxCell>
        <mxCell id="dlTAh_w1uyHh_SsjcPfW-32" value="&amp;lt;&amp;lt;incluse&amp;gt;&amp;gt;" style="endArrow=open;endSize=12;dashed=1;html=1;rounded=0;fontSize=25;exitX=0.74;exitY=0.075;exitDx=0;exitDy=0;exitPerimeter=0;entryX=0.077;entryY=0.777;entryDx=0;entryDy=0;entryPerimeter=0;" parent="1" source="dlTAh_w1uyHh_SsjcPfW-8" target="dlTAh_w1uyHh_SsjcPfW-29" edge="1">
          <mxGeometry width="160" relative="1" as="geometry">
            <mxPoint x="430" y="540" as="sourcePoint" />
            <mxPoint x="590" y="540" as="targetPoint" />
          </mxGeometry>
        </mxCell>
        <mxCell id="dlTAh_w1uyHh_SsjcPfW-34" value="Pagamento&amp;nbsp;&lt;br&gt;CC" style="ellipse;whiteSpace=wrap;html=1;fontSize=20;align=center;verticalAlign=top;" parent="1" vertex="1">
          <mxGeometry x="150" y="700" width="170" height="70" as="geometry" />
        </mxCell>
        <mxCell id="dlTAh_w1uyHh_SsjcPfW-35" value="Pagar&lt;br&gt;CP" style="ellipse;whiteSpace=wrap;html=1;fontSize=20;align=center;verticalAlign=top;" parent="1" vertex="1">
          <mxGeometry x="510" y="700" width="180" height="70" as="geometry" />
        </mxCell>
        <mxCell id="dlTAh_w1uyHh_SsjcPfW-36" value="name" style="endArrow=block;endFill=1;html=1;edgeStyle=orthogonalEdgeStyle;align=left;verticalAlign=top;rounded=0;fontSize=20;endSize=11;" parent="1" edge="1">
          <mxGeometry x="-1" relative="1" as="geometry">
            <mxPoint x="510" y="530" as="sourcePoint" />
            <mxPoint x="670" y="530" as="targetPoint" />
          </mxGeometry>
        </mxCell>
        <mxCell id="dlTAh_w1uyHh_SsjcPfW-37" value="1" style="edgeLabel;resizable=0;html=1;align=left;verticalAlign=bottom;fontSize=20;" parent="dlTAh_w1uyHh_SsjcPfW-36" connectable="0" vertex="1">
          <mxGeometry x="-1" relative="1" as="geometry" />
        </mxCell>
        <mxCell id="dlTAh_w1uyHh_SsjcPfW-38" value="name" style="endArrow=block;endFill=1;html=1;edgeStyle=orthogonalEdgeStyle;align=left;verticalAlign=top;rounded=0;fontSize=20;endSize=11;" parent="1" edge="1">
          <mxGeometry x="-1" relative="1" as="geometry">
            <mxPoint x="510" y="530" as="sourcePoint" />
            <mxPoint x="670" y="530" as="targetPoint" />
          </mxGeometry>
        </mxCell>
        <mxCell id="dlTAh_w1uyHh_SsjcPfW-39" value="1" style="edgeLabel;resizable=0;html=1;align=left;verticalAlign=bottom;fontSize=20;" parent="dlTAh_w1uyHh_SsjcPfW-38" connectable="0" vertex="1">
          <mxGeometry x="-1" relative="1" as="geometry" />
        </mxCell>
        <mxCell id="dlTAh_w1uyHh_SsjcPfW-40" value="name" style="endArrow=block;endFill=1;html=1;edgeStyle=orthogonalEdgeStyle;align=left;verticalAlign=top;rounded=0;fontSize=20;endSize=11;" parent="1" edge="1">
          <mxGeometry x="-1" relative="1" as="geometry">
            <mxPoint x="510" y="530" as="sourcePoint" />
            <mxPoint x="670" y="530" as="targetPoint" />
          </mxGeometry>
        </mxCell>
        <mxCell id="dlTAh_w1uyHh_SsjcPfW-41" value="1" style="edgeLabel;resizable=0;html=1;align=left;verticalAlign=bottom;fontSize=20;" parent="dlTAh_w1uyHh_SsjcPfW-40" connectable="0" vertex="1">
          <mxGeometry x="-1" relative="1" as="geometry" />
        </mxCell>
        <mxCell id="dlTAh_w1uyHh_SsjcPfW-42" value="" style="endArrow=block;endFill=1;html=1;align=left;verticalAlign=top;rounded=0;fontSize=20;endSize=11;" parent="1" target="dlTAh_w1uyHh_SsjcPfW-8" edge="1">
          <mxGeometry x="-0.6742" y="-38" relative="1" as="geometry">
            <mxPoint x="230" y="700" as="sourcePoint" />
            <mxPoint x="390" y="700" as="targetPoint" />
            <mxPoint as="offset" />
          </mxGeometry>
        </mxCell>
        <mxCell id="dlTAh_w1uyHh_SsjcPfW-46" value="" style="endArrow=block;endFill=1;html=1;align=left;verticalAlign=top;rounded=0;fontSize=20;endSize=11;" parent="1" source="dlTAh_w1uyHh_SsjcPfW-35" target="dlTAh_w1uyHh_SsjcPfW-8" edge="1">
          <mxGeometry x="-1" relative="1" as="geometry">
            <mxPoint x="400" y="700" as="sourcePoint" />
            <mxPoint x="560" y="700" as="targetPoint" />
          </mxGeometry>
        </mxCell>
      </root>
    </mxGraphModel>
  </diagram>
</mxfile>
